<svg width="906" height="441" viewBox="0 0 906 441" fill="none" xmlns="http://www.w3.org/2000/svg">
<g id="Frame 1">
<path id="Welcome" d="M201.734 265L191.15 173.02H201.986L208.916 241.06C209.084 242.908 209.252 244.84 209.42 246.856C209.588 248.788 209.714 250.636 209.798 252.4C209.966 254.164 210.05 255.634 210.05 256.81C210.218 255.634 210.344 254.164 210.428 252.4C210.596 250.636 210.764 248.788 210.932 246.856C211.184 244.84 211.436 242.908 211.688 241.06L220.256 173.02H231.974L239.786 241.06C240.038 242.908 240.248 244.84 240.416 246.856C240.668 248.788 240.878 250.636 241.046 252.4C241.298 254.164 241.466 255.634 241.55 256.81C241.634 255.634 241.718 254.164 241.802 252.4C241.97 250.636 242.138 248.788 242.306 246.856C242.558 244.84 242.768 242.908 242.936 241.06L250.118 173.02H260.45L249.614 265H235.376L227.564 195.7C227.396 193.768 227.186 191.878 226.934 190.03C226.766 188.182 226.598 186.46 226.43 184.864C226.262 183.268 226.136 181.966 226.052 180.958C225.968 181.966 225.8 183.268 225.548 184.864C225.38 186.46 225.212 188.182 225.044 190.03C224.876 191.878 224.666 193.768 224.414 195.7L215.972 265H201.734ZM301.351 266.26C295.891 266.26 291.103 265.168 286.987 262.984C282.955 260.8 279.805 257.734 277.537 253.786C275.353 249.754 274.261 245.092 274.261 239.8V220.9C274.261 215.524 275.353 210.862 277.537 206.914C279.805 202.966 282.955 199.9 286.987 197.716C291.103 195.532 295.891 194.44 301.351 194.44C306.811 194.44 311.557 195.532 315.589 197.716C319.705 199.9 322.855 202.966 325.039 206.914C327.307 210.862 328.441 215.524 328.441 220.9V233.122H285.349V239.8C285.349 245.26 286.735 249.46 289.507 252.4C292.279 255.256 296.227 256.684 301.351 256.684C305.719 256.684 309.247 255.928 311.935 254.416C314.623 252.82 316.261 250.468 316.849 247.36H328.189C327.433 253.156 324.577 257.776 319.621 261.22C314.749 264.58 308.659 266.26 301.351 266.26ZM317.353 225.562V220.9C317.353 215.44 315.967 211.24 313.195 208.3C310.507 205.36 306.559 203.89 301.351 203.89C296.227 203.89 292.279 205.36 289.507 208.3C286.735 211.24 285.349 215.44 285.349 220.9V224.554H318.235L317.353 225.562ZM386.352 265C382.32 265 378.792 264.202 375.768 262.606C372.744 261.01 370.392 258.742 368.712 255.802C367.032 252.862 366.192 249.418 366.192 245.47V183.352H342.882V173.02H377.532V245.47C377.532 248.326 378.33 250.594 379.926 252.274C381.522 253.87 383.664 254.668 386.352 254.668H408.402V265H386.352ZM452.956 266.26C447.412 266.26 442.54 265.21 438.34 263.11C434.224 261.01 431.032 257.986 428.764 254.038C426.496 250.006 425.362 245.26 425.362 239.8V220.9C425.362 215.356 426.496 210.61 428.764 206.662C431.032 202.714 434.224 199.69 438.34 197.59C442.54 195.49 447.412 194.44 452.956 194.44C460.936 194.44 467.362 196.582 472.234 200.866C477.106 205.15 479.668 210.988 479.92 218.38H468.58C468.328 213.928 466.816 210.526 464.044 208.174C461.356 205.738 457.66 204.52 452.956 204.52C448 204.52 444.052 205.948 441.112 208.804C438.172 211.576 436.702 215.566 436.702 220.774V239.8C436.702 245.008 438.172 249.04 441.112 251.896C444.052 254.752 448 256.18 452.956 256.18C457.66 256.18 461.356 254.962 464.044 252.526C466.816 250.09 468.328 246.688 468.58 242.32H479.92C479.668 249.712 477.106 255.55 472.234 259.834C467.362 264.118 460.936 266.26 452.956 266.26ZM528.003 266.008C522.459 266.008 517.671 264.958 513.639 262.858C509.607 260.758 506.457 257.734 504.189 253.786C502.005 249.754 500.913 245.008 500.913 239.548V221.152C500.913 215.608 502.005 210.862 504.189 206.914C506.457 202.966 509.607 199.942 513.639 197.842C517.671 195.742 522.459 194.692 528.003 194.692C533.547 194.692 538.335 195.742 542.367 197.842C546.399 199.942 549.507 202.966 551.691 206.914C553.959 210.862 555.093 215.566 555.093 221.026V239.548C555.093 245.008 553.959 249.754 551.691 253.786C549.507 257.734 546.399 260.758 542.367 262.858C538.335 264.958 533.547 266.008 528.003 266.008ZM528.003 255.928C532.959 255.928 536.823 254.542 539.595 251.77C542.367 248.998 543.753 244.924 543.753 239.548V221.152C543.753 215.776 542.367 211.702 539.595 208.93C536.823 206.158 532.959 204.772 528.003 204.772C523.131 204.772 519.267 206.158 516.411 208.93C513.639 211.702 512.253 215.776 512.253 221.152V239.548C512.253 244.924 513.639 248.998 516.411 251.77C519.267 254.542 523.131 255.928 528.003 255.928ZM574.07 265V195.7H584.024V204.016H586.292L584.528 207.04C584.528 203.176 585.536 200.11 587.552 197.842C589.652 195.574 592.466 194.44 595.994 194.44C599.858 194.44 602.84 195.868 604.94 198.724C607.04 201.58 608.09 205.612 608.09 210.82L604.688 204.016H609.98L607.586 207.04C607.586 203.176 608.636 200.11 610.736 197.842C612.92 195.574 615.776 194.44 619.304 194.44C623.672 194.44 627.032 196.078 629.384 199.354C631.82 202.63 633.038 206.956 633.038 212.332V265H622.58V212.206C622.58 209.35 621.95 207.124 620.69 205.528C619.514 203.932 617.75 203.134 615.398 203.134C613.13 203.134 611.324 203.932 609.98 205.528C608.72 207.04 608.09 209.224 608.09 212.08V265H599.018V212.206C599.018 209.266 598.346 207.04 597.002 205.528C595.742 203.932 593.936 203.134 591.584 203.134C589.232 203.134 587.468 203.932 586.292 205.528C585.116 207.04 584.528 209.224 584.528 212.08V265H574.07ZM679.105 266.26C673.645 266.26 668.857 265.168 664.741 262.984C660.709 260.8 657.559 257.734 655.291 253.786C653.107 249.754 652.015 245.092 652.015 239.8V220.9C652.015 215.524 653.107 210.862 655.291 206.914C657.559 202.966 660.709 199.9 664.741 197.716C668.857 195.532 673.645 194.44 679.105 194.44C684.565 194.44 689.311 195.532 693.343 197.716C697.459 199.9 700.609 202.966 702.793 206.914C705.061 210.862 706.195 215.524 706.195 220.9V233.122H663.103V239.8C663.103 245.26 664.489 249.46 667.261 252.4C670.033 255.256 673.981 256.684 679.105 256.684C683.473 256.684 687.001 255.928 689.689 254.416C692.377 252.82 694.015 250.468 694.603 247.36H705.943C705.187 253.156 702.331 257.776 697.375 261.22C692.503 264.58 686.413 266.26 679.105 266.26ZM695.107 225.562V220.9C695.107 215.44 693.721 211.24 690.949 208.3C688.261 205.36 684.313 203.89 679.105 203.89C673.981 203.89 670.033 205.36 667.261 208.3C664.489 211.24 663.103 215.44 663.103 220.9V224.554H695.989L695.107 225.562Z" fill="black"/>
</g>
</svg>
